<svg width="32" height="32" viewBox="0 0 32 32" fill="none" xmlns="http://www.w3.org/2000/svg">
<path d="M22.4006 30.6551C20.614 30.6551 19.2607 30.3864 18.3408 29.8491C17.4208 29.3119 16.6409 28.7447 16.0009 28.1477C15.4943 27.6702 15.0076 27.2523 14.541 26.8941C14.0744 26.5359 13.4811 26.3568 12.7611 26.3568C11.5612 26.3568 10.2279 26.1717 8.76134 25.8016C7.29476 25.4315 5.91484 24.8226 4.62158 23.9748C3.32832 23.1271 2.24172 22.0227 1.36177 20.6616C0.481822 19.3005 0.0285147 17.6289 0.0018496 15.647C-0.0514806 11.6591 1.04846 8.38769 3.30166 5.83261C5.55486 3.27754 8.70801 2 12.7611 2C14.6543 2 16.2542 2.24476 17.5608 2.73429C18.8674 3.22381 19.994 3.8387 20.9406 4.57896C21.8873 5.31921 22.6872 6.13707 23.3405 7.03254C23.9938 7.92802 24.6138 8.79364 25.2004 9.62941C25.5204 10.107 25.8404 10.5428 26.1603 10.9368C26.4803 11.3308 26.827 11.695 27.2003 12.0293C28.8002 13.462 30.0001 14.7157 30.8001 15.7902C31.6 16.8648 32 18.4886 32 20.6616C32 23.5271 31.0067 25.9091 29.0202 27.8075C27.0336 29.7059 24.8271 30.6551 22.4006 30.6551ZM22.4006 28.5059C24.1338 28.5059 25.767 27.7597 27.3003 26.2673C28.8335 24.7748 29.6001 22.9063 29.6001 20.6616C29.6001 18.9423 29.3268 17.6827 28.7802 16.8827C28.2335 16.0828 27.1469 14.9664 25.5204 13.5337C24.9871 13.0561 24.5071 12.5427 24.0805 11.9935C23.6538 11.4442 23.2272 10.8592 22.8005 10.2383C21.6539 8.59066 20.4207 7.16388 19.1007 5.95798C17.7808 4.75208 15.6676 4.14913 12.7611 4.14913C11.3212 4.14913 10.0346 4.3521 8.90133 4.75805C7.76807 5.164 6.74813 5.77292 5.84151 6.58481C4.72158 7.58774 3.86829 8.84737 3.28166 10.3637C2.69503 11.88 2.40171 13.5695 2.40171 15.4321C2.40171 17.1752 2.80835 18.614 3.62164 19.7482C4.43493 20.8825 5.39487 21.7839 6.50147 22.4525C7.60808 23.1212 8.74801 23.5808 9.92128 23.8316C11.0945 24.0823 12.0412 24.2077 12.7611 24.2077C13.961 24.2077 14.9277 24.4763 15.6609 25.0136C16.3942 25.5509 17.0009 26.0464 17.4808 26.5001C18.1208 27.1209 18.7541 27.6105 19.3807 27.9686C20.0074 28.3268 21.014 28.5059 22.4006 28.5059ZM16.0009 20.6258C17.3342 20.6258 18.4674 20.2079 19.4007 19.3721C20.334 18.5364 20.8006 17.5215 20.8006 16.3275C20.8006 15.1336 20.334 14.1187 19.4007 13.2829C18.4674 12.4472 17.3342 12.0293 16.0009 12.0293C14.6677 12.0293 13.5344 12.4472 12.6011 13.2829C11.6678 14.1187 11.2012 15.1336 11.2012 16.3275C11.2012 17.5215 11.6678 18.5364 12.6011 19.3721C13.5344 20.2079 14.6677 20.6258 16.0009 20.6258Z" fill="#6230BD"/>
</svg>
