<svg width="17" height="17" viewBox="0 0 17 17" fill="none" xmlns="http://www.w3.org/2000/svg">
<path d="M14.4757 13.1094L13.7248 12.3399V3.7593H5.18132L4.18013 2.75571H13.7248C13.9807 2.75571 14.2115 2.85886 14.4173 3.06515C14.6231 3.27144 14.726 3.50282 14.726 3.7593V12.457C14.726 12.6131 14.701 12.7414 14.6509 12.8417C14.6009 12.9421 14.5425 13.0313 14.4757 13.1094ZM13.9751 15.4343L12.0061 13.4606H2.37798C2.111 13.4606 1.87738 13.363 1.67715 13.1679C1.47691 12.9728 1.37679 12.7358 1.37679 12.457V3.7593C1.37679 3.64779 1.39347 3.53628 1.42685 3.42477C1.46022 3.31326 1.53809 3.19617 1.66046 3.07351L0.726013 2.13684L1.42685 1.43433L14.676 14.7318L13.9751 15.4343ZM7.85116 9.27901L2.37798 3.79275V12.457H11.0383L8.83567 10.2826H4.04663V9.27901H7.85116ZM4.04663 8.27543V7.27184H5.04782V8.27543H4.04663ZM9.68668 8.27543L8.68549 7.27184H12.0562V8.27543H9.68668Z" fill="url(#paint0_linear_6_561)"/>
<defs>
<linearGradient id="paint0_linear_6_561" x1="7.72601" y1="1.43433" x2="7.72601" y2="15.4343" gradientUnits="userSpaceOnUse">
<stop stop-color="#613187"/>
<stop offset="1" stop-color="#4D1DA6"/>
</linearGradient>
</defs>
</svg>
