<svg width="64" height="64" viewBox="0 0 64 64" fill="none" xmlns="http://www.w3.org/2000/svg">
<path d="M20.48 3.84009C11.3024 3.84009 3.84003 11.3025 3.84003 20.4801V43.5201C3.84003 52.6977 11.3024 60.1601 20.48 60.1601H43.52C52.6976 60.1601 60.16 52.6977 60.16 43.5201V20.4801C60.16 11.3025 52.6976 3.84009 43.52 3.84009H20.48ZM47.36 14.0801C48.768 14.0801 49.92 15.2321 49.92 16.6401C49.92 18.0481 48.768 19.2001 47.36 19.2001C45.952 19.2001 44.8 18.0481 44.8 16.6401C44.8 15.2321 45.952 14.0801 47.36 14.0801ZM32 17.9201C39.7696 17.9201 46.08 24.2305 46.08 32.0001C46.08 39.7697 39.7696 46.0801 32 46.0801C24.2304 46.0801 17.92 39.7697 17.92 32.0001C17.92 24.2305 24.2304 17.9201 32 17.9201ZM32 20.4801C25.6512 20.4801 20.48 25.6513 20.48 32.0001C20.48 38.3489 25.6512 43.5201 32 43.5201C38.3488 43.5201 43.52 38.3489 43.52 32.0001C43.52 25.6513 38.3488 20.4801 32 20.4801Z" fill="#EDEDED"/>
</svg>
