<svg width="67" height="60" viewBox="0 0 67 60" fill="none" xmlns="http://www.w3.org/2000/svg">
<path d="M44.6667 55C41.5493 55 39.188 54.5312 37.5828 53.5938C35.9776 52.6562 34.6167 51.6667 33.5 50.625C32.616 49.7917 31.7668 49.0625 30.9526 48.4375C30.1384 47.8125 29.1031 47.5 27.8469 47.5C25.7531 47.5 23.4267 47.1771 20.8677 46.5312C18.3087 45.8854 15.9009 44.8229 13.6443 43.3437C11.3877 41.8646 9.49167 39.9375 7.95625 37.5625C6.42084 35.1875 5.62986 32.2708 5.58334 28.8125C5.49028 21.8542 7.40955 16.1458 11.3411 11.6875C15.2727 7.22917 20.7747 5 27.8469 5C31.1504 5 33.942 5.42708 36.2219 6.28125C38.5017 7.13542 40.4675 8.20833 42.1193 9.5C43.771 10.7917 45.1668 12.2187 46.3068 13.7812C47.4467 15.3437 48.5285 16.8542 49.5521 18.3125C50.1104 19.1458 50.6688 19.9063 51.2271 20.5938C51.7854 21.2813 52.3903 21.9167 53.0417 22.5C55.8333 25 57.9271 27.1875 59.3229 29.0625C60.7188 30.9375 61.4167 33.7708 61.4167 37.5625C61.4167 42.5625 59.6835 46.7188 56.2172 50.0313C52.7509 53.3438 48.9007 55 44.6667 55ZM44.6667 51.25C47.691 51.25 50.5408 49.9479 53.2161 47.3438C55.8915 44.7396 57.2292 41.4792 57.2292 37.5625C57.2292 34.5625 56.7523 32.3646 55.7984 30.9687C54.8446 29.5729 52.9486 27.625 50.1104 25.125C49.1799 24.2917 48.3424 23.3958 47.5979 22.4375C46.8535 21.4792 46.109 20.4583 45.3646 19.375C43.3639 16.5 41.212 14.0104 38.9089 11.9062C36.6057 9.80208 32.9184 8.75 27.8469 8.75C25.3344 8.75 23.0894 9.10417 21.112 9.8125C19.1346 10.5208 17.3549 11.5833 15.7729 13C13.8188 14.75 12.3299 16.9479 11.3063 19.5938C10.2826 22.2396 9.77084 25.1875 9.77084 28.4375C9.77084 31.4792 10.4804 33.9896 11.8995 35.9687C13.3186 37.9479 14.9936 39.5208 16.9245 40.6875C18.8554 41.8542 20.8444 42.6562 22.8917 43.0937C24.9389 43.5312 26.5906 43.75 27.8469 43.75C29.9406 43.75 31.6273 44.2188 32.9068 45.1562C34.1863 46.0938 35.2448 46.9583 36.0823 47.75C37.199 48.8333 38.304 49.6875 39.3974 50.3125C40.4908 50.9375 42.2472 51.25 44.6667 51.25ZM33.5 37.5C35.8264 37.5 37.8038 36.7708 39.4323 35.3125C41.0608 33.8542 41.875 32.0833 41.875 30C41.875 27.9167 41.0608 26.1458 39.4323 24.6875C37.8038 23.2292 35.8264 22.5 33.5 22.5C31.1736 22.5 29.1962 23.2292 27.5677 24.6875C25.9392 26.1458 25.125 27.9167 25.125 30C25.125 32.0833 25.9392 33.8542 27.5677 35.3125C29.1962 36.7708 31.1736 37.5 33.5 37.5Z" fill="#B993FF"/>
</svg>
